<svg width="24" height="24" viewBox="0 0 24 24" fill="none" xmlns="http://www.w3.org/2000/svg">
<path d="M9.80069 4C9.72403 3.99992 9.64867 4.01988 9.5821 4.05789C9.51553 4.0959 9.46005 4.15066 9.42116 4.21672C9.38227 4.28278 9.36131 4.35787 9.36038 4.43452C9.35945 4.51118 9.37856 4.58675 9.41583 4.65374L9.41927 4.65975L8.52758 6.44228C8.48059 6.53613 8.46871 6.64368 8.49407 6.74553L8.79732 7.9585H7.77763C7.70164 7.95855 7.62697 7.97828 7.56088 8.01577C7.49479 8.05325 7.43954 8.10722 7.4005 8.17241L6.34473 9.93174C6.28476 10.0316 6.26684 10.1512 6.29491 10.2642L6.59815 11.4772H5.84219C5.76566 11.4772 5.69047 11.4972 5.62403 11.5351C5.55759 11.5731 5.50221 11.6277 5.46334 11.6937L3.39303 15.2132C3.33925 15.2501 3.29436 15.2985 3.2616 15.3549L1.06501 19.1708L1.06243 19.1751C1.06185 19.1763 1.06128 19.1774 1.06071 19.1786C1.01793 19.2513 0.996981 19.3348 1.00035 19.4191C1.00372 19.5034 1.03127 19.585 1.07972 19.6541C1.12816 19.7232 1.19546 19.7769 1.27358 19.8088C1.3517 19.8407 1.43734 19.8494 1.5203 19.834H5.84219H8.04135C8.11633 19.834 8.19006 19.8148 8.25554 19.7783C8.32103 19.7418 8.37609 19.6892 8.41551 19.6254C8.45493 19.5616 8.4774 19.4888 8.48077 19.4139C8.48415 19.339 8.46832 19.2645 8.4348 19.1975L7.66337 17.6537L8.73031 15.8755H13.7592C13.8342 15.8755 13.9079 15.8563 13.9734 15.8198C14.0389 15.7833 14.0939 15.7307 14.1334 15.6669C14.1728 15.6031 14.1952 15.5303 14.1986 15.4554C14.202 15.3805 14.1862 15.306 14.1526 15.239L12.3933 11.7203C12.3568 11.6472 12.3006 11.5858 12.2311 11.5428C12.1616 11.4999 12.0816 11.4771 11.9999 11.4771C11.9182 11.4771 11.8381 11.4999 11.7686 11.5428C11.6991 11.5858 11.6429 11.6472 11.6064 11.7203L11.2886 12.3568H10.1374L11.9904 9.26856L16.5451 17.238L15.5649 19.1975C15.5314 19.2645 15.5156 19.339 15.5189 19.4139C15.5223 19.4888 15.5448 19.5616 15.5842 19.6254C15.6236 19.6892 15.6787 19.7418 15.7442 19.7783C15.8097 19.8148 15.8834 19.834 15.9584 19.834H18.1567H22.4786C22.5618 19.8497 22.6477 19.8411 22.7261 19.8091C22.8045 19.7772 22.8721 19.7232 22.9206 19.6539C22.9691 19.5845 22.9966 19.5026 22.9997 19.4179C23.0028 19.3333 22.9814 19.2496 22.9381 19.1768C22.9373 19.1751 22.9364 19.1734 22.9356 19.1717C22.9353 19.1714 22.935 19.1711 22.9347 19.1708L20.7355 15.4322L18.5364 11.6937C18.4975 11.6277 18.4421 11.5731 18.3757 11.5351C18.3092 11.4972 18.2341 11.4772 18.1575 11.4772H17.4016L17.7048 10.2642C17.7325 10.1528 17.7155 10.0351 17.6576 9.93604L14.5804 4.66061L14.5839 4.65374C14.6212 4.58675 14.6403 4.51118 14.6393 4.43452C14.6384 4.35787 14.6175 4.28278 14.5786 4.21672C14.5397 4.15066 14.4842 4.0959 14.4176 4.05789C14.351 4.01988 14.2757 3.99992 14.199 4H9.80069ZM10.5489 4.87967H13.4508L11.9999 7.49204L10.5489 4.87967ZM14.0839 5.55402L16.808 10.2247L16.4111 11.8105C16.3949 11.8753 16.3937 11.943 16.4076 12.0084C16.4215 12.0738 16.4501 12.1351 16.4913 12.1878C16.5324 12.2405 16.5851 12.2831 16.6451 12.3124C16.7052 12.3417 16.7712 12.3569 16.838 12.3568H17.9058L19.8464 15.6556L17.9058 18.9543H16.6697L17.4368 17.4209C17.4692 17.3562 17.4852 17.2845 17.4832 17.2121C17.4813 17.1397 17.4615 17.0689 17.4256 17.006L14.9653 12.7009L12.505 8.39576L14.0839 5.55402ZM9.93642 5.59096L11.4922 8.39061L8.98373 12.5707C8.94379 12.6375 8.92226 12.7136 8.92133 12.7914C8.92041 12.8691 8.94011 12.9458 8.97844 13.0134C9.01677 13.0811 9.07236 13.1374 9.13954 13.1766C9.20672 13.2158 9.28308 13.2365 9.36086 13.2365H11.56C11.6417 13.2365 11.7218 13.2138 11.7913 13.1708C11.8608 13.1279 11.9169 13.0665 11.9535 12.9934L11.9999 12.9006L13.0479 14.9958H8.48119C8.40521 14.9959 8.33053 15.0156 8.26444 15.0531C8.19835 15.0906 8.1431 15.1446 8.10406 15.2097L6.78456 17.4089C6.74655 17.4723 6.72512 17.5443 6.72227 17.6182C6.71942 17.692 6.73523 17.7654 6.76824 17.8316L7.33006 18.9543H6.09646L4.17563 15.6178L6.09389 12.3568H7.16169C7.22853 12.3569 7.2945 12.3417 7.35458 12.3124C7.41466 12.2831 7.46728 12.2405 7.50844 12.1878C7.5496 12.1351 7.57821 12.0738 7.59211 12.0084C7.606 11.943 7.60481 11.8753 7.58863 11.8105L7.19261 10.2281L8.02675 8.83817H9.36086C9.4277 8.83819 9.49366 8.82298 9.55375 8.7937C9.61383 8.76441 9.66645 8.72181 9.70761 8.66914C9.74877 8.61648 9.77738 8.55512 9.79127 8.48974C9.80517 8.42436 9.80398 8.35667 9.7878 8.29182L9.38749 6.69055L9.93642 5.59096ZM3.66278 16.4897L5.08107 18.9543H2.2127L3.66278 16.4897ZM20.3567 16.5232L20.8627 17.3831L21.787 18.9543H18.9264L20.3567 16.5232Z" fill="white"/>
</svg>
