<svg width="24" height="24" viewBox="0 0 24 24" fill="none" xmlns="http://www.w3.org/2000/svg">
<g clip-path="url(#clip0_7534_401)">
<path fill-rule="evenodd" clip-rule="evenodd" d="M10.6703 -5.18094C10.036 -4.21234 9.21335 -2.57394 9.04072 -1.93557C8.97301 -1.68505 8.8668 -1.29219 8.80478 -1.06255C8.59153 -0.273637 8.64467 1.20709 8.91516 2.01202C9.04141 2.3878 9.1366 2.70406 9.12666 2.71491C9.10502 2.73852 6.56414 1.45222 6.48899 1.37957C6.29548 1.19259 6.558 -0.505102 6.93431 -1.50073C7.00172 -1.67913 7.03717 -1.84485 7.01303 -1.86892C6.81983 -2.06212 5.59904 0.0853661 5.5944 0.626565C5.5919 0.914056 5.54301 0.896747 4.95315 0.39882C4.6687 0.158776 4.37164 -0.0713985 4.29307 -0.11262C4.21449 -0.153842 4.15019 -0.210854 4.15019 -0.239247C4.15019 -0.267715 3.91569 -0.643951 3.62911 -1.0753C2.80232 -2.32001 2.52713 -2.94312 2.3778 -3.90891C2.15461 -5.35236 1.89794 -4.22244 2.04165 -2.42902C2.18961 -0.582156 3.8602 1.3177 6.61744 2.77481C6.99322 2.97341 7.42024 3.24822 7.56638 3.38555C7.71251 3.5228 7.92599 3.67053 8.04085 3.71373C8.15571 3.75693 8.24961 3.84932 8.24961 3.91901C8.24961 4.15153 8.65857 4.70237 8.89147 4.7836C9.01499 4.82665 9.19696 4.93779 9.29572 5.03063C9.39449 5.1234 9.61548 5.26787 9.78674 5.35175C10.2201 5.56371 10.3743 5.80701 10.0889 5.82835C9.71751 5.85606 9.38576 6.30099 9.47344 6.65392C9.73504 7.70763 9.87389 12.6262 9.68745 14.2344C9.58754 15.0962 9.63499 15.3475 9.96696 15.7149C10.2615 16.041 10.2528 16.1152 9.86493 16.5812C9.76017 16.7071 9.69648 16.8624 9.7172 16.9415C9.74476 17.047 9.69572 17.0954 9.51398 17.142C9.30255 17.1961 9.25852 17.2563 9.13843 17.6547C8.57999 19.5072 7.09504 21.6331 6.44103 21.6331C6.16455 21.6331 6.19186 21.9213 6.4647 21.9725C6.90227 22.0546 7.63197 21.9422 7.74926 21.7747C7.84832 21.6333 7.85166 21.6335 7.89122 21.7848C7.93601 21.956 12.1536 22.0254 12.8399 21.8663C13.0531 21.8169 13.1728 21.823 13.2501 21.8871C13.3652 21.9826 15.199 21.9998 15.2926 21.9063C15.3639 21.835 15.1212 21.4575 14.9528 21.3777C14.6522 21.2355 14.5494 20.0957 14.55 16.9127C14.5506 14.0493 14.5506 14.0493 15.4805 14.0279C16.4105 14.0066 16.4105 14.0066 16.4081 13.805C16.4056 13.6034 16.4056 13.6034 16.6227 13.786C16.8857 14.0074 16.8746 14.0071 17.6555 13.8097C20.5816 13.0697 22.2465 11.0783 22.2507 8.31297C22.2532 6.66038 21.8887 5.70665 21.2448 5.68145C20.9179 5.66862 20.9234 5.67879 20.8305 4.91942C20.7115 3.9474 18.0111 3.13905 14.5506 3.03953C13.4441 3.00772 12.481 2.95708 12.4104 2.92695C12.3397 2.89681 12.1791 2.86652 12.0533 2.85961C11.7081 2.84071 10.8115 2.0061 10.5234 1.43552C10.1103 0.617076 10.2102 -0.513073 10.7991 -1.68239C11.2687 -2.61494 10.8697 -2.68075 10.1022 -1.79733C9.92878 -1.59767 9.84201 -1.53633 9.86797 -1.63191C9.89067 -1.71542 9.9492 -1.98871 9.99801 -2.23923C10.206 -3.30667 10.7188 -4.73221 11.177 -5.51709C11.2788 -5.69155 11.3621 -5.87094 11.3621 -5.91565C11.3621 -6.14104 11.1549 -5.92089 10.6703 -5.18094ZM14.2975 5.66862C14.2697 5.69641 14.2469 6.1938 14.2469 6.77387C14.2469 7.40541 14.2186 7.81095 14.1762 7.78483C14.0545 7.7096 14.0011 7.89605 14.1075 8.02419C14.2383 8.18164 14.3046 12.3276 14.1819 12.6792C14.086 12.9547 14.2215 12.9871 14.5389 12.7646C14.6497 12.6868 14.877 12.5793 15.044 12.5257C15.4983 12.3797 16.0838 11.9799 16.6016 11.4622C16.9514 11.1123 17.0994 11.0116 17.2115 11.0471C17.373 11.0985 17.4076 11.0105 17.2771 10.88C17.2178 10.8208 17.2502 10.7097 17.3923 10.4846C18.4479 8.81242 18.0802 6.78791 16.5827 6.02709C15.9586 5.71007 14.487 5.47914 14.2975 5.66862Z" fill="white"/>
</g>
<defs>
<clipPath id="clip0_7534_401">
<rect width="24" height="24" fill="white"/>
</clipPath>
</defs>
</svg>
