<svg width="408" height="736" viewBox="0 0 408 736" fill="none" xmlns="http://www.w3.org/2000/svg">
<path fill-rule="evenodd" clip-rule="evenodd" d="M89.3685 2.36473C61.7614 7.69032 29.1706 32.0225 16.0165 57.1244C12.2985 64.217 7.13167 77.1483 4.53392 85.8585C-0.077179 101.315 -0.172006 104.421 0.588793 215.261C1.33195 323.701 1.57673 329.457 6.01362 342.772C21.6618 389.754 55.5979 424.108 102.8 440.754C119.992 446.818 121.06 446.908 184.722 447.744L249.225 448.592V511.977V575.362H204.06H158.895L158.301 525.721L157.708 476.079H79.423H1.13789L0.568948 606.04L0 736H204H408L407.985 579.267C407.969 430.047 407.757 421.636 403.541 403.846C390.693 349.621 350.636 307.175 298.842 292.896C288.594 290.072 271.314 288.998 222.211 288.135L158.811 287.022V223.701V160.381H203.976H249.141L249.734 210.023L250.327 259.664H328.612H406.897V174.883C406.897 91.579 406.809 89.8677 401.788 76.7155C398.978 69.3529 394.321 59.2283 391.437 54.2195C383.928 41.1744 360.378 19.7649 345.458 12.4202C321.366 0.559783 312.576 -0.198784 201.812 0.0310176C146.02 0.147034 95.4218 1.19787 89.3685 2.36473Z" fill="white"/>
</svg>
