<svg width="24" height="24" viewBox="0 0 24 24" fill="none" xmlns="http://www.w3.org/2000/svg">
<path d="M8.07266 12.0396L8.05945 11.9472C7.93615 11.6213 7.81286 11.3263 7.68956 11.0621C7.57508 10.7979 7.4782 10.4985 7.39894 10.1638C7.37252 10.0581 7.32849 9.96565 7.26684 9.88639C7.2052 9.79833 7.14355 9.71466 7.0819 9.6354C7.02026 9.54734 6.96301 9.46367 6.91017 9.38441C6.85733 9.29635 6.8221 9.20388 6.80449 9.107C6.70762 8.65786 6.60194 8.22633 6.48745 7.81242C6.38177 7.3985 6.24967 6.98019 6.09115 6.55746L5.77411 5.88375L5.58917 5.22325C5.49229 5.05592 5.369 4.91061 5.21929 4.78732C5.07838 4.66402 4.93307 4.54954 4.78336 4.44386C4.63364 4.32937 4.49273 4.21929 4.36063 4.11361C4.22853 4.00793 4.12726 3.89344 4.0568 3.77014C3.95993 3.77014 3.84985 3.76574 3.72655 3.75694C3.61207 3.73932 3.49758 3.7085 3.38309 3.66446C3.27741 3.62043 3.18494 3.56319 3.10568 3.49273C3.03523 3.41347 3 3.3122 3 3.1889C3 3.0568 3.03963 2.95553 3.11889 2.88507C3.19815 2.81462 3.29062 2.77939 3.3963 2.77939L4.17569 2.87186C4.21973 2.87186 4.26376 2.84985 4.30779 2.80581C4.35183 2.76178 4.41347 2.73976 4.49273 2.73976C4.56319 2.73976 4.62484 2.70894 4.67768 2.64729H5.58917L7.09511 2.77939C7.39454 2.77939 7.66755 2.74417 7.91413 2.67371C8.16953 2.60326 8.43813 2.54602 8.71995 2.50198C8.89608 2.49317 9.04579 2.48437 9.16909 2.47556C9.30119 2.46675 9.41568 2.46235 9.51255 2.46235C9.61823 2.46235 9.73712 2.45354 9.86922 2.43593C10.0101 2.40951 10.1598 2.37869 10.3184 2.34346C10.3448 2.34346 10.4196 2.35227 10.5429 2.36988C10.6662 2.37869 10.7939 2.4007 10.926 2.43593C11.0581 2.47116 11.177 2.524 11.2827 2.59445C11.3884 2.6561 11.4412 2.73536 11.4412 2.83223L11.3752 3.55878C11.3752 3.61162 11.3355 3.66887 11.2563 3.73051C11.1858 3.78336 11.0978 3.8362 10.9921 3.88904C10.8952 3.94188 10.7939 3.98591 10.6882 4.02114C10.5914 4.04756 10.5209 4.06077 10.4769 4.06077L10.041 3.9683C9.86482 3.9683 9.71951 3.9771 9.60502 3.99472C9.49934 4.00352 9.35403 4.02554 9.16909 4.06077C9.08983 4.09599 9.01938 4.14883 8.95773 4.21929C8.90489 4.28974 8.87847 4.3734 8.87847 4.47028C8.87847 4.67283 8.9181 4.86217 8.99736 5.03831C9.07662 5.21444 9.13386 5.39938 9.16909 5.59313L9.24835 6.66314C9.26596 6.81286 9.29679 6.96257 9.34082 7.11229C9.39366 7.25319 9.4509 7.3941 9.51255 7.53501C9.5742 7.67591 9.63584 7.81682 9.69749 7.95773C9.75914 8.09863 9.80757 8.23954 9.8428 8.38045V9.04095C9.8428 9.07618 9.87803 9.13783 9.94848 9.22589C10.0277 9.31396 10.0762 9.37561 10.0938 9.41083C10.1907 9.58697 10.2699 9.78952 10.3316 10.0185C10.3932 10.2387 10.4505 10.4676 10.5033 10.7054C10.5561 10.9432 10.609 11.181 10.6618 11.4188C10.7235 11.6477 10.7939 11.8547 10.8732 12.0396C10.9613 12.2774 11.0757 12.5284 11.2166 12.7926C11.3664 13.0568 11.472 13.3078 11.5337 13.5456L11.5997 14.2985C11.6526 14.3866 11.7054 14.5143 11.7583 14.6816C11.8199 14.849 11.8816 15.0163 11.9432 15.1836C12.0137 15.3421 12.0841 15.483 12.1546 15.6063C12.2338 15.7296 12.3219 15.7913 12.4188 15.7913C12.5685 15.7913 12.6874 15.7517 12.7754 15.6724C12.8723 15.5843 12.9692 15.4919 13.0661 15.395L13.1717 15.2629C13.2158 15.166 13.2378 15.0823 13.2378 15.0119C13.229 14.915 13.2246 14.8358 13.2246 14.7741C13.2246 14.7037 13.2246 14.6508 13.2246 14.6156C13.2246 14.5539 13.229 14.5187 13.2378 14.5099L13.6737 13.7966C13.7177 13.6821 13.7662 13.5456 13.819 13.3871C13.8807 13.2285 13.9379 13.0656 13.9908 12.8983C14.0524 12.731 14.1096 12.5636 14.1625 12.3963C14.2241 12.2202 14.277 12.0616 14.321 11.9207C14.3738 11.8063 14.4223 11.6697 14.4663 11.5112C14.5103 11.3439 14.5588 11.1766 14.6116 11.0092C14.6645 10.8419 14.7261 10.6834 14.7966 10.5337C14.867 10.384 14.9507 10.2607 15.0476 10.1638C15.0211 10.1462 15.0079 10.0845 15.0079 9.97886V9.34478C15.0079 9.30075 15.0079 9.26112 15.0079 9.22589C15.0167 9.19067 15.0299 9.15103 15.0476 9.107C15.0476 9.08939 15.052 9.04976 15.0608 8.98811C15.0784 8.92646 15.096 8.86041 15.1136 8.78996C15.14 8.7107 15.1664 8.63584 15.1929 8.56539C15.2193 8.48613 15.2413 8.42448 15.2589 8.38045L15.4174 8.06341V7.41612C15.4615 7.38089 15.5187 7.33245 15.5892 7.27081C15.6596 7.20035 15.6948 7.14311 15.6948 7.09907C15.8446 6.72919 15.9679 6.30647 16.0647 5.83091C16.1616 5.35535 16.21 4.893 16.21 4.44386V4.19287C16.1308 4.06957 16.0427 3.95509 15.9458 3.84941C15.849 3.74373 15.7081 3.66887 15.5231 3.62483C15.391 3.59841 15.2193 3.5852 15.0079 3.5852C14.867 3.5852 14.7217 3.5808 14.572 3.57199C14.4223 3.55438 14.2858 3.52356 14.1625 3.47952C14.0392 3.42668 13.9379 3.35623 13.8587 3.26816C13.7794 3.17129 13.7398 3.03919 13.7398 2.87186C13.7398 2.73976 13.7618 2.63408 13.8058 2.55482C13.8587 2.46675 13.9291 2.4007 14.0172 2.35667C14.1052 2.30383 14.2065 2.27301 14.321 2.2642C14.4355 2.24659 14.5544 2.23778 14.6777 2.23778L17.0159 2.5284C17.4033 2.5284 17.7908 2.43593 18.1783 2.25099C18.3809 2.19815 18.5702 2.14531 18.7464 2.09247C18.9225 2.03082 19.0898 2 19.2483 2C19.4773 2.10568 19.6931 2.17613 19.8956 2.21136C20.107 2.23778 20.3272 2.25099 20.5561 2.25099H20.8336C20.8864 2.25099 20.9348 2.25099 20.9789 2.25099C21.0317 2.25099 21.0889 2.24659 21.1506 2.23778C21.1946 2.25539 21.2343 2.27741 21.2695 2.30383C21.3047 2.32144 21.3355 2.33906 21.362 2.35667C21.3884 2.37428 21.4016 2.3919 21.4016 2.40951C21.4368 2.47996 21.4632 2.55482 21.4808 2.63408C21.5073 2.71334 21.5205 2.7926 21.5205 2.87186C21.5205 3.06561 21.4808 3.22413 21.4016 3.34742C21.3664 3.4443 21.3047 3.53677 21.2166 3.62483C21.1286 3.70409 21.0625 3.75253 21.0185 3.77014H20.2655L19.9353 3.69088C19.9 3.69088 19.8472 3.69969 19.7768 3.71731C19.7151 3.72611 19.6447 3.73932 19.5654 3.75694C19.4861 3.77455 19.4069 3.79216 19.3276 3.80978C19.2572 3.81858 19.2043 3.82739 19.1691 3.8362C18.9665 4.00352 18.7948 4.19287 18.6539 4.40423C18.5218 4.61559 18.4073 4.84016 18.3104 5.07794C18.2224 5.30691 18.1475 5.54469 18.0859 5.79128C18.033 6.02906 17.989 6.26684 17.9538 6.50462C17.9538 6.56627 17.9317 6.61911 17.8877 6.66314L17.4914 7.21797C17.4033 7.30603 17.3593 7.42492 17.3593 7.57464C17.3593 7.63628 17.3593 7.70233 17.3593 7.77279C17.3593 7.83443 17.3505 7.90048 17.3329 7.97094C17.3065 8.03258 17.2712 8.08543 17.2272 8.12946C17.1832 8.16469 17.1347 8.19991 17.0819 8.23514C17.0291 8.27037 16.9806 8.30559 16.9366 8.34082C16.8926 8.37605 16.8573 8.42008 16.8309 8.47292L16.8573 8.94848C16.8573 9.17746 16.8309 9.39322 16.7781 9.59577C16.734 9.79833 16.6284 9.95685 16.461 10.0713L16.1704 11.2206C15.9855 11.3967 15.8137 11.6257 15.6552 11.9075C15.5055 12.1805 15.3734 12.4447 15.2589 12.7001C15.2149 12.8058 15.1885 12.9115 15.1797 13.0172C15.1709 13.114 15.1576 13.2109 15.14 13.3078C15.1312 13.4047 15.1048 13.5059 15.0608 13.6116C15.0255 13.7085 14.9551 13.8098 14.8494 13.9155C14.8494 14.0828 14.8274 14.2413 14.7834 14.391C14.7481 14.5407 14.6997 14.6904 14.638 14.8402C14.5852 14.9811 14.5192 15.1308 14.4399 15.2893C14.3606 15.439 14.2814 15.5975 14.2021 15.7649C14.1229 15.9586 14.0436 16.1744 13.9643 16.4122C13.8851 16.6499 13.797 16.8613 13.7001 17.0462L13.4888 17.3369C13.4183 17.4073 13.3743 17.4778 13.3567 17.5482C13.3567 17.6011 13.3611 17.6627 13.3699 17.7332C13.3787 17.8036 13.3831 17.8785 13.3831 17.9577C13.3831 18.0722 13.3787 18.1603 13.3699 18.2219C13.3611 18.2836 13.3567 18.332 13.3567 18.3672C13.3567 18.3937 13.3479 18.4377 13.3303 18.4993C13.3126 18.5522 13.2906 18.6094 13.2642 18.6711C13.2466 18.7327 13.229 18.79 13.2114 18.8428C13.1937 18.8868 13.1805 18.9177 13.1717 18.9353L13.0661 19.1466C13.0396 19.2259 13.0088 19.3624 12.9736 19.5561C12.9384 19.7411 12.8943 19.9392 12.8415 20.1506C12.7974 20.3531 12.749 20.5469 12.6962 20.7318C12.6521 20.9168 12.6125 21.0445 12.5773 21.1149C12.4804 21.4232 12.3439 21.6477 12.1678 21.7886C12.0004 21.9295 11.7583 22 11.4412 22C11.3531 22 11.2739 21.956 11.2034 21.8679C11.133 21.7886 11.0669 21.6918 11.0053 21.5773C10.9524 21.4628 10.904 21.3483 10.86 21.2338C10.8247 21.1193 10.7983 21.0313 10.7807 20.9696C10.7543 20.908 10.7147 20.7759 10.6618 20.5733C10.6178 20.3708 10.5694 20.1506 10.5165 19.9128C10.4725 19.675 10.424 19.4461 10.3712 19.2259C10.3272 19.0057 10.2875 18.8428 10.2523 18.7371C10.1554 18.2968 10.041 17.8829 9.90885 17.4954C9.77675 17.0991 9.67107 16.6896 9.59181 16.2668C9.5742 16.1788 9.53016 16.1083 9.45971 16.0555C9.39806 16.0026 9.32761 15.9542 9.24835 15.9102C9.1779 15.8573 9.10744 15.8001 9.03699 15.7384C8.97534 15.6768 8.93131 15.5931 8.90489 15.4875L8.71995 14.2985C8.70233 14.2545 8.67591 14.1797 8.64069 14.074C8.60546 13.9595 8.57023 13.845 8.53501 13.7305C8.49978 13.616 8.46896 13.5103 8.44254 13.4135C8.41612 13.3166 8.40291 13.255 8.40291 13.2285C8.35887 13.0436 8.28402 12.8719 8.17834 12.7133C8.08146 12.5548 8.03303 12.3831 8.03303 12.1982L8.07266 12.0396Z" fill="white"/>
</svg>
